<svg aria-hidden="true" style="position: absolute; width: 0; height: 0; overflow: hidden;" version="1.1" xmlns="http://www.w3.org/2000/svg" xmlns:xlink="http://www.w3.org/1999/xlink">
<defs>
  <symbol id="icon-arrow" viewBox="0 0 32 32">
    <path fill="none" stroke="#fafafa" style="stroke: var(--color1, #fafafa)" stroke-linejoin="round" stroke-linecap="round" stroke-miterlimit="4" stroke-width="1.3333" d="M9.143 16h13.714M22.857 16l-3.429-3.429M22.857 16l-3.429 3.429"></path>
    <path fill="none" stroke="#fafafa" style="stroke: var(--color1, #fafafa)" stroke-linejoin="round" stroke-linecap="round" stroke-miterlimit="4" stroke-width="1.3333" d="M16 30.857c8.205 0 14.857-6.652 14.857-14.857s-6.652-14.857-14.857-14.857c-8.205 0-14.857 6.652-14.857 14.857s6.652 14.857 14.857 14.857z"></path>
  </symbol>
  <symbol id="icon-chocolate" viewBox="0 0 32 32">
    <path fill="#111" style="fill: var(--color2, #111)" d="M13.822 2.413l7.527 7.536 0.080-0.080c0.158-0.154 0.369-0.242 0.589-0.244s0.434 0.080 0.595 0.231l0.873 0.873c0.305 0.305 0.315 0.77 0.083 1.094l-0.004 0.007-0.143 0.192 6.16 6.16c0.55 0.55 0.55 1.43 0 1.98l-9.43 9.43c-0.55 0.55-1.43 0.55-1.98 0l-4.447-4.447c-0.074 0.093-0.167 0.169-0.272 0.224s-0.221 0.086-0.34 0.093c-0.119 0.007-0.237-0.012-0.348-0.054s-0.212-0.108-0.296-0.192l-2.6-2.6c-0.154-0.158-0.242-0.369-0.244-0.589s0.080-0.434 0.231-0.595l0.006-0.007 0.077-0.076-7.527-7.527c-0.55-0.55-0.55-1.43 0-1.98l9.43-9.43c0.55-0.55 1.43-0.55 1.98 0v0.001zM20.404 10.893l-1.756-1.755c-0.055-0.057-0.121-0.102-0.194-0.133s-0.151-0.047-0.231-0.047-0.158 0.016-0.231 0.047c-0.073 0.031-0.139 0.076-0.194 0.133l-3.58 3.58c-0.057 0.056-0.102 0.123-0.133 0.197s-0.046 0.153-0.046 0.233 0.016 0.159 0.046 0.233c0.031 0.074 0.076 0.141 0.133 0.197l1.749 1.749 0.61-0.61-1.565-1.565 3.21-3.22 1.569 1.574 0.613-0.613zM15.329 15.966l-1.754-1.754c-0.055-0.057-0.121-0.102-0.194-0.133s-0.152-0.047-0.231-0.047-0.158 0.016-0.231 0.047c-0.073 0.031-0.139 0.076-0.194 0.133l-3.59 3.59c-0.24 0.23-0.24 0.61 0 0.85l1.752 1.752 0.616-0.616-1.57-1.564 3.22-3.21 1.564 1.563 0.612-0.611zM8.822 8.194l3.58 3.58c0.24 0.24 0.62 0.24 0.85-0.010l3.58-3.58c0.057-0.054 0.102-0.119 0.133-0.192s0.047-0.15 0.047-0.228h0.010c0-0.15-0.060-0.31-0.18-0.43l-3.58-3.58c-0.056-0.057-0.123-0.102-0.197-0.133s-0.153-0.047-0.233-0.047c-0.080 0-0.159 0.016-0.233 0.047s-0.141 0.076-0.197 0.133l-3.58 3.59c-0.24 0.23-0.24 0.61 0 0.85zM3.752 13.264l3.58 3.58c0.24 0.24 0.62 0.24 0.85 0l3.58-3.58c0.058-0.055 0.104-0.122 0.135-0.196s0.046-0.154 0.045-0.234h0.010c0-0.16-0.060-0.31-0.18-0.43l-3.58-3.58c-0.055-0.057-0.121-0.102-0.194-0.133s-0.151-0.047-0.231-0.047c-0.079 0-0.158 0.016-0.231 0.047s-0.139 0.076-0.194 0.133l-3.59 3.59c-0.24 0.23-0.24 0.61 0 0.85zM10.685 22.017l2.362 2.363 9.636-13.040-0.655-0.655-11.343 11.332z"></path>
    <path fill="#fd9222" style="fill: var(--color3, #fd9222)" d="M13.822 2.413l7.527 7.536 0.080-0.080c0.158-0.154 0.369-0.242 0.589-0.244s0.434 0.080 0.595 0.231l0.873 0.873c0.305 0.305 0.315 0.77 0.083 1.094l-0.004 0.007-0.143 0.192 6.16 6.16c0.55 0.55 0.55 1.43 0 1.98l-9.43 9.43c-0.55 0.55-1.43 0.55-1.98 0l-4.447-4.447c-0.074 0.093-0.167 0.169-0.272 0.224s-0.221 0.086-0.34 0.093c-0.119 0.007-0.237-0.012-0.348-0.054s-0.212-0.108-0.296-0.192l-2.6-2.6c-0.154-0.158-0.242-0.369-0.244-0.589s0.080-0.434 0.231-0.595l0.006-0.007 0.077-0.076-7.527-7.527c-0.55-0.55-0.55-1.43 0-1.98l9.43-9.43c0.55-0.55 1.43-0.55 1.98 0v0.001zM20.404 10.893l-1.756-1.755c-0.055-0.057-0.121-0.102-0.194-0.133s-0.151-0.047-0.231-0.047-0.158 0.016-0.231 0.047c-0.073 0.031-0.139 0.076-0.194 0.133l-3.58 3.58c-0.057 0.056-0.102 0.123-0.133 0.197s-0.046 0.153-0.046 0.233 0.016 0.159 0.046 0.233c0.031 0.074 0.076 0.141 0.133 0.197l1.749 1.749 0.61-0.61-1.565-1.565 3.21-3.22 1.569 1.574 0.613-0.613zM15.329 15.966l-1.754-1.754c-0.055-0.057-0.121-0.102-0.194-0.133s-0.152-0.047-0.231-0.047-0.158 0.016-0.231 0.047c-0.073 0.031-0.139 0.076-0.194 0.133l-3.59 3.59c-0.24 0.23-0.24 0.61 0 0.85l1.752 1.752 0.616-0.616-1.57-1.564 3.22-3.21 1.564 1.563 0.612-0.611zM8.822 8.194l3.58 3.58c0.24 0.24 0.62 0.24 0.85-0.010l3.58-3.58c0.057-0.054 0.102-0.119 0.133-0.192s0.047-0.15 0.047-0.228h0.010c0-0.15-0.060-0.31-0.18-0.43l-3.58-3.58c-0.056-0.057-0.123-0.102-0.197-0.133s-0.153-0.047-0.233-0.047c-0.080 0-0.159 0.016-0.233 0.047s-0.141 0.076-0.197 0.133l-3.58 3.59c-0.24 0.23-0.24 0.61 0 0.85zM3.752 13.264l3.58 3.58c0.24 0.24 0.62 0.24 0.85 0l3.58-3.58c0.058-0.055 0.104-0.122 0.135-0.196s0.046-0.154 0.045-0.234h0.010c0-0.16-0.060-0.31-0.18-0.43l-3.58-3.58c-0.055-0.057-0.121-0.102-0.194-0.133s-0.151-0.047-0.231-0.047c-0.079 0-0.158 0.016-0.231 0.047s-0.139 0.076-0.194 0.133l-3.59 3.59c-0.24 0.23-0.24 0.61 0 0.85zM10.685 22.017l2.362 2.363 9.636-13.040-0.655-0.655-11.343 11.332z"></path>
  </symbol>
  <symbol id="icon-coin" viewBox="0 0 32 32">
    <path fill="#fd9222" style="fill: var(--color3, #fd9222)" d="M16 2.667c-7.333 0-13.333 6-13.333 13.333s6 13.333 13.333 13.333 13.333-6 13.333-13.333c0-7.333-6-13.333-13.333-13.333zM16 26.667c-5.867 0-10.667-4.8-10.667-10.667s4.8-10.667 10.667-10.667 10.667 4.8 10.667 10.667c0 5.867-4.8 10.667-10.667 10.667z"></path>
    <path fill="#fd9222" style="fill: var(--color3, #fd9222)" d="M17.733 14.667h-3.467c-0.667 0-1.2-0.533-1.2-1.2s0.533-1.2 1.2-1.2h4.933c0.8 0 1.333-0.533 1.333-1.333s-0.533-1.333-1.333-1.333h-1.867v-1.2c0-0.8-0.533-1.333-1.333-1.333s-1.333 0.533-1.333 1.333v1.2h-0.4c-2.133 0-3.867 1.733-3.867 3.867s1.733 3.867 3.867 3.867h3.333c0.667 0 1.2 0.533 1.2 1.2s-0.533 1.2-1.2 1.2h-4.933c-0.8 0-1.333 0.533-1.333 1.333s0.533 1.333 1.333 1.333h2v1.2c0 0.8 0.533 1.333 1.333 1.333s1.333-0.533 1.333-1.333v-1.2h0.4c2.133 0 3.867-1.733 3.867-3.867s-1.733-3.867-3.867-3.867z"></path>
  </symbol>
  <symbol id="icon-facebook" viewBox="0 0 32 32">
    <path d="M19.52 4.64c0.24 0 0.48 0 0.96 0v3.6c-0.24 0-0.72 0-1.2 0s-0.96 0-1.2 0.24c-0.24 0.24-0.24 0.48-0.24 1.040 0 0.48 0 0.8 0 1.28h2.64v3.040h-2.64v13.2h-4.080v-13.28h-2.16v-3.040h2.16v-1.040c0-1.76 0.24-3.040 0.72-3.6 0.72-1.040 2.16-1.52 4.32-1.52 0.24 0.080 0.48 0.080 0.72 0.080z"></path>
  </symbol>
  <symbol id="icon-facebook-footer" viewBox="0 0 32 32">
    <path fill="#fafafa" style="fill: var(--color1, #fafafa)" d="M19.52 4.64c0.24 0 0.48 0 0.96 0v3.6c-0.24 0-0.72 0-1.2 0s-0.96 0-1.2 0.24c-0.24 0.24-0.24 0.48-0.24 1.040 0 0.48 0 0.8 0 1.28h2.64v3.040h-2.64v13.2h-4.080v-13.28h-2.16v-3.040h2.16v-1.040c0-1.76 0.24-3.040 0.72-3.6 0.72-1.040 2.16-1.52 4.32-1.52 0.24 0.080 0.48 0.080 0.72 0.080z"></path>
  </symbol>
  <symbol id="icon-instagram" viewBox="0 0 32 32">
    <path d="M28.718 10.756c-0.016-1.074-0.215-2.14-0.596-3.145-0.667-1.716-2.024-3.073-3.743-3.737-0.994-0.373-2.044-0.573-3.108-0.596-1.367-0.061-1.801-0.078-5.273-0.078s-3.916 0-5.274 0.078c-1.062 0.023-2.112 0.223-3.106 0.596-1.719 0.664-3.078 2.021-3.743 3.737-0.374 0.992-0.576 2.041-0.596 3.101-0.061 1.367-0.080 1.8-0.080 5.265s0 3.909 0.080 5.265c0.021 1.062 0.222 2.109 0.596 3.104 0.667 1.714 2.024 3.071 3.744 3.735 0.989 0.386 2.040 0.605 3.106 0.639 1.369 0.061 1.803 0.079 5.274 0.079s3.917 0 5.274-0.079c1.062-0.021 2.112-0.221 3.108-0.595 1.719-0.666 3.076-2.022 3.743-3.737 0.374-0.993 0.574-2.041 0.596-3.104 0.061-1.365 0.080-1.798 0.080-5.265-0.003-3.466-0.003-3.906-0.082-5.264zM15.99 22.531c-3.631 0-6.572-2.936-6.572-6.561s2.941-6.561 6.572-6.561c3.628 0 6.572 2.936 6.572 6.561s-2.944 6.561-6.572 6.561zM22.824 10.696c-0.849 0-1.532-0.684-1.532-1.53s0.684-1.53 1.532-1.53c0.846 0 1.531 0.684 1.531 1.53s-0.685 1.53-1.531 1.53z"></path>
    <path d="M15.992 19.976c2.211 0 4.004-1.793 4.004-4.004s-1.793-4.004-4.004-4.004c-2.211 0-4.004 1.793-4.004 4.004s1.793 4.004 4.004 4.004z"></path>
  </symbol>
  <symbol id="icon-instagram-footer" viewBox="0 0 32 32">
    <path fill="#fafafa" style="fill: var(--color1, #fafafa)" d="M28.718 10.756c-0.016-1.074-0.215-2.14-0.596-3.145-0.667-1.716-2.024-3.073-3.743-3.737-0.994-0.373-2.044-0.573-3.108-0.596-1.367-0.061-1.801-0.078-5.273-0.078s-3.916 0-5.274 0.078c-1.062 0.023-2.112 0.223-3.106 0.596-1.719 0.664-3.078 2.021-3.743 3.737-0.374 0.992-0.576 2.041-0.596 3.101-0.061 1.367-0.080 1.8-0.080 5.265s0 3.909 0.080 5.265c0.021 1.062 0.222 2.109 0.596 3.104 0.667 1.714 2.024 3.071 3.744 3.735 0.989 0.386 2.040 0.605 3.106 0.639 1.369 0.061 1.803 0.079 5.274 0.079s3.917 0 5.274-0.079c1.062-0.021 2.112-0.221 3.108-0.595 1.719-0.666 3.076-2.022 3.743-3.737 0.374-0.993 0.574-2.041 0.596-3.104 0.061-1.365 0.080-1.798 0.080-5.265-0.003-3.466-0.003-3.906-0.082-5.264zM15.99 22.531c-3.631 0-6.572-2.936-6.572-6.561s2.941-6.561 6.572-6.561c3.628 0 6.572 2.936 6.572 6.561s-2.944 6.561-6.572 6.561zM22.824 10.696c-0.849 0-1.532-0.684-1.532-1.53s0.684-1.53 1.532-1.53c0.846 0 1.531 0.684 1.531 1.53s-0.685 1.53-1.531 1.53z"></path>
    <path fill="#fafafa" style="fill: var(--color1, #fafafa)" d="M15.992 19.976c2.211 0 4.004-1.793 4.004-4.004s-1.793-4.004-4.004-4.004c-2.211 0-4.004 1.793-4.004 4.004s1.793 4.004 4.004 4.004z"></path>
  </symbol>
  <symbol id="icon-twitter" viewBox="0 0 32 32">
    <path d="M29.333 7.898c-0.992 0.435-2.048 0.723-3.15 0.863 1.133-0.677 1.998-1.74 2.405-3.022-1.057 0.63-2.223 1.075-3.467 1.323-1.003-1.068-2.433-1.73-3.993-1.73-3.027 0-5.463 2.457-5.463 5.468 0 0.433 0.037 0.85 0.127 1.247-4.545-0.222-8.567-2.4-11.268-5.718-0.472 0.818-0.748 1.755-0.748 2.763 0 1.893 0.975 3.572 2.428 4.543-0.878-0.017-1.74-0.272-2.47-0.673 0 0.017 0 0.038 0 0.060 0 2.657 1.895 4.863 4.38 5.372-0.445 0.122-0.93 0.18-1.433 0.18-0.35 0-0.703-0.020-1.035-0.093 0.708 2.165 2.718 3.757 5.108 3.808-1.86 1.455-4.222 2.332-6.778 2.332-0.448 0-0.878-0.020-1.308-0.075 2.422 1.562 5.292 2.453 8.387 2.453 10.060 0 15.56-8.333 15.56-15.557 0-0.242-0.008-0.475-0.020-0.707 1.085-0.77 1.997-1.732 2.74-2.838z"></path>
  </symbol>
  <symbol id="icon-twitter-footer" viewBox="0 0 32 32">
    <path fill="#fafafa" style="fill: var(--color1, #fafafa)" d="M29.333 7.898c-0.992 0.435-2.048 0.723-3.15 0.863 1.133-0.677 1.998-1.74 2.405-3.022-1.057 0.63-2.223 1.075-3.467 1.323-1.003-1.068-2.433-1.73-3.993-1.73-3.027 0-5.463 2.457-5.463 5.468 0 0.433 0.037 0.85 0.127 1.247-4.545-0.222-8.567-2.4-11.268-5.718-0.472 0.818-0.748 1.755-0.748 2.763 0 1.893 0.975 3.572 2.428 4.543-0.878-0.017-1.74-0.272-2.47-0.673 0 0.017 0 0.038 0 0.060 0 2.657 1.895 4.863 4.38 5.372-0.445 0.122-0.93 0.18-1.433 0.18-0.35 0-0.703-0.020-1.035-0.093 0.708 2.165 2.718 3.757 5.108 3.808-1.86 1.455-4.222 2.332-6.778 2.332-0.448 0-0.878-0.020-1.308-0.075 2.422 1.562 5.292 2.453 8.387 2.453 10.060 0 15.56-8.333 15.56-15.557 0-0.242-0.008-0.475-0.020-0.707 1.085-0.77 1.997-1.732 2.74-2.838z"></path>
  </symbol>
  <symbol id="icon-logo" viewBox="0 0 32 32">
    <path fill="#fcf1e0" style="fill: var(--color4, #fcf1e0)" d="M5.277 21.409l10.777-17.424 0.64-0.674 8.236 5.491 0.056 3.314 2.010 3.28-8.88 14.077-12.839-8.063z"></path>
    <path fill="none" stroke="#fd9222" style="stroke: var(--color3, #fd9222)" stroke-linejoin="round" stroke-linecap="round" stroke-miterlimit="4" stroke-width="2.6667" d="M21.635 23.88l-14.185-8.864M11.361 8.599l14.186 8.864M10.63 25.864l11.736-19.25M27.176 14.789c-3.040-1.899-4.234-3.384-2.278-6.592l-9.626-6.015-11.736 19.25 14.185 8.864 9.454-15.507z"></path>
  </symbol>
  <symbol id="icon-play" viewBox="0 0 32 32">
    <path fill="#f5f4f4" style="fill: var(--color5, #f5f4f4)" d="M10.909 24v-15.273l14.545 7.636-14.545 7.636z"></path>
    <path fill="none" stroke="#fff" style="stroke: var(--color6, #fff)" stroke-linejoin="miter" stroke-linecap="butt" stroke-miterlimit="4" stroke-width="0.7273" d="M31.636 16c0 8.636-7.001 15.636-15.636 15.636s-15.636-7.001-15.636-15.636c0-8.636 7.001-15.636 15.636-15.636s15.636 7.001 15.636 15.636z"></path>
  </symbol>
  <symbol id="icon-scroll-down" viewBox="0 0 32 32">
    <path d="M16.947 17.867c-0.124 0.125-0.271 0.224-0.434 0.292s-0.337 0.103-0.513 0.103-0.35-0.035-0.513-0.103c-0.162-0.068-0.31-0.167-0.434-0.292l-6.107-6.12c-0.124-0.125-0.271-0.224-0.434-0.292s-0.337-0.103-0.513-0.103c-0.176 0-0.35 0.035-0.513 0.103s-0.31 0.167-0.434 0.292c-0.248 0.25-0.388 0.588-0.388 0.94s0.139 0.69 0.388 0.94l6.12 6.12c0.75 0.749 1.767 1.17 2.827 1.17s2.077-0.421 2.827-1.17l6.12-6.12c0.246-0.248 0.385-0.584 0.387-0.933 0.001-0.175-0.033-0.349-0.099-0.512s-0.164-0.31-0.288-0.435c-0.124-0.125-0.271-0.224-0.434-0.292s-0.337-0.103-0.513-0.103-0.35 0.035-0.513 0.103c-0.162 0.068-0.31 0.167-0.434 0.292l-6.107 6.12z"></path>
  </symbol>
  <symbol id="icon-spoon" viewBox="0 0 32 32">
    <path fill="#fd9222" style="fill: var(--color3, #fd9222)" d="M15.451 14.106c-0.783-0.95-1.177-2.116-1.177-3.282 0-4.324 5.181-8.642 10.362-8.642 2.86 0 5.181 2.321 5.181 5.182 0 5.182-4.318 10.364-8.646 10.364-1.166 0-2.331-0.394-3.281-1.177l-12.758 12.761c-0.675 0.675-1.77 0.675-2.445 0s-0.675-1.771 0-2.445l12.764-12.761z"></path>
  </symbol>
  <!-- Modal icons -->
  <symbol id="icon-x-close" viewBox="0 0 32 32">
    <path stroke-linejoin="round" stroke-linecap="round" stroke-miterlimit="4" stroke-width="2.2857" d="M24 8l-16 16"></path>
    <path stroke-linejoin="round" stroke-linecap="round" stroke-miterlimit="4" stroke-width="2.2857" d="M8 8l16 16"></path>
  </symbol>
  <symbol id="icon-user" viewBox="0 0 24 24"> 
    <path d="M20 21V19C20 17.9391 19.5786 16.9217 18.8284 16.1716C18.0783 15.4214 17.0609 15 16 15H8C6.93913 15 5.92172 15.4214 5.17157 16.1716C4.42143 16.9217 4 17.9391 4 19V21" stroke-width="2" stroke-linecap="round" stroke-linejoin="round" />
    <path d="M12 11C14.2091 11 16 9.20914 16 7C16 4.79086 14.2091 3 12 3C9.79086 3 8 4.79086 8 7C8 9.20914 9.79086 11 12 11Z" stroke-width="2" stroke-linecap="round" stroke-linejoin="round" />
  </symbol>
  <symbol id="icon-message" viewBox="0 0 24 24">
    <path d="M4 4H20C21.1 4 22 4.9 22 6V18C22 19.1 21.1 20 20 20H4C2.9 20 2 19.1 2 18V6C2 4.9 2.9 4 4 4Z" stroke-width="2" stroke-linecap="round" stroke-linejoin="round" />
    <path d="M22 6L12 13L2 6" stroke-width="2" stroke-linecap="round" stroke-linejoin="round" />
  </symbol>
  <symbol id="icon-checkbox" viewBox="0 0 10 10">
    <path d="M3.94874 9.75416C4.38459 9.75416 4.71409 9.58679 4.93724 9.25207L9.76464 1.97696C9.84484 1.85841 9.90411 1.7416 9.94247 1.62654C9.98082 1.50799 10 1.39467 10 1.28658C10 0.986723 9.8954 0.739164 9.68619 0.543906C9.48047 0.345161 9.22594 0.245789 8.92259 0.245789C8.71339 0.245789 8.53556 0.28763 8.38912 0.371312C8.24616 0.451507 8.11018 0.590977 7.98117 0.789722L3.92782 7.15478L1.89854 4.72278C1.67887 4.46824 1.40342 4.34098 1.07218 4.34098C0.761855 4.34098 0.505579 4.44035 0.303347 4.63909C0.101116 4.83784 0 5.08714 0 5.387C0 5.52299 0.0209205 5.652 0.0627615 5.77403C0.108089 5.89258 0.190028 6.01636 0.308577 6.14537L3.00209 9.32006C3.24965 9.60946 3.5652 9.75416 3.94874 9.75416Z" />
  </symbol>  
  <symbol id="icon-phone" viewBox="0 0 24 24">
    <path d="M22.0001 16.9201V19.9201C22.0012 20.1986 21.9441 20.4743 21.8326 20.7294C21.721 20.9846 21.5574 21.2137 21.3521 21.402C21.1469 21.5902 20.9046 21.7336 20.6408 21.8228C20.377 21.912 20.0974 21.9452 19.8201 21.9201C16.7429 21.5857 13.7871 20.5342 11.1901 18.8501C8.77388 17.3148 6.72539 15.2663 5.19006 12.8501C3.50003 10.2413 2.4483 7.27109 2.12006 4.1801C2.09507 3.90356 2.12793 3.62486 2.21656 3.36172C2.30518 3.09859 2.44763 2.85679 2.63482 2.65172C2.82202 2.44665 3.04986 2.28281 3.30385 2.17062C3.55783 2.05843 3.8324 2.00036 4.11006 2.0001H7.11006C7.59536 1.99532 8.06585 2.16718 8.43382 2.48363C8.80179 2.80008 9.04213 3.23954 9.11005 3.7201C9.23668 4.68016 9.47151 5.62282 9.81006 6.5301C9.9446 6.88802 9.97372 7.27701 9.89396 7.65098C9.81421 8.02494 9.62892 8.36821 9.36005 8.6401L8.09006 9.9101C9.51361 12.4136 11.5865 14.4865 14.0901 15.9101L15.3601 14.6401C15.6319 14.3712 15.9752 14.1859 16.3492 14.1062C16.7231 14.0264 17.1121 14.0556 17.4701 14.1901C18.3773 14.5286 19.32 14.7635 20.2801 14.8901C20.7658 14.9586 21.2095 15.2033 21.5266 15.5776C21.8437 15.9519 22.0122 16.4297 22.0001 16.9201Z" stroke-width="2" stroke-linecap="round" stroke-linejoin="round" />
  </symbol>
  </defs>
</svg>
